<?xml version="1.0" standalone="no"?>
<!DOCTYPE svg PUBLIC "-//W3C//DTD SVG 20010904//EN"
 "http://www.w3.org/TR/2001/REC-SVG-20010904/DTD/svg10.dtd">
<svg version="1.0" xmlns="http://www.w3.org/2000/svg"
 width="261.000000pt" height="261.000000pt" viewBox="0 0 261.000000 261.000000"
 preserveAspectRatio="xMidYMid meet">
<metadata>
Created by potrace 1.14, written by Peter Selinger 2001-2017
</metadata>
<g transform="translate(0.000000,261.000000) scale(0.100000,-0.100000)"
fill="#000000" stroke="none">
<path d="M1075 2599 c-22 -4 -52 -10 -66 -12 -58 -11 -229 -69 -229 -77 0 -5
-7 -7 -15 -3 -10 3 -15 1 -13 -7 2 -7 -3 -15 -11 -18 -9 -3 -11 0 -6 9 11 17
-95 -42 -170 -96 -65 -47 -138 -115 -131 -122 3 -3 21 11 40 31 20 19 36 32
36 28 0 -4 5 1 11 11 5 9 15 17 21 17 5 0 27 13 48 30 20 16 41 26 45 22 5 -4
5 -2 1 5 -4 7 3 14 16 18 13 4 30 13 38 19 8 7 26 13 39 14 27 1 26 0 -50 -51
-66 -44 -166 -133 -159 -140 3 -3 25 13 50 35 24 22 56 48 70 56 14 9 44 32
68 50 23 19 42 31 42 28 0 -4 13 2 29 13 15 11 31 18 34 15 7 -7 67 27 62 36
-3 5 29 11 78 13 9 1 17 5 17 9 0 4 5 8 11 8 8 0 7 -6 -2 -17 -12 -15 -12 -16
6 -9 11 4 28 10 38 12 9 2 27 7 40 10 12 3 34 8 49 11 15 3 25 9 22 14 -6 11
-6 11 71 15 139 8 155 9 155 4 0 -3 19 -5 43 -5 23 0 52 -4 65 -8 13 -5 22 -4
22 2 0 5 -10 12 -22 14 -13 2 -3 2 22 -1 25 -2 57 -5 73 -6 15 0 27 -4 27 -8
0 -5 8 -8 18 -7 10 0 12 3 4 6 -6 2 -10 9 -6 14 3 5 2 9 -3 8 -4 -1 -10 0 -13
1 -26 10 -74 13 -260 14 -118 2 -233 -1 -255 -5z m10 -34 c-16 -7 -34 -10 -39
-7 -12 7 21 21 49 20 15 0 13 -3 -10 -13z m-76 1 c-9 -10 -59 -14 -54 -5 4 5
18 9 32 9 15 0 24 -2 22 -4z m-155 -60 c-6 -17 -32 -28 -45 -21 -5 3 -18 1
-30 -5 -11 -7 -23 -9 -26 -7 -7 7 68 46 89 47 11 0 15 -5 12 -14z"/>
<path d="M1628 2583 c6 -2 10 -9 6 -14 -3 -5 3 -12 13 -16 10 -4 20 -9 23 -13
9 -11 101 -42 107 -36 4 3 -1 6 -10 6 -9 0 -17 4 -17 8 0 5 -6 9 -12 9 -25 1
-104 43 -83 43 l20 1 -20 9 c-11 5 -24 9 -30 9 -5 -1 -4 -3 3 -6z"/>
<path d="M1510 2560 c8 -5 20 -10 25 -10 6 0 3 5 -5 10 -8 5 -19 10 -25 10 -5
0 -3 -5 5 -10z"/>
<path d="M1688 2563 c6 -2 18 -2 25 0 6 3 1 5 -13 5 -14 0 -19 -2 -12 -5z"/>
<path d="M1785 2530 c33 -16 67 -29 75 -29 8 0 -8 11 -37 24 -77 35 -107 39
-38 5z"/>
<path d="M1581 2537 c9 -7 15 -18 13 -25 -1 -7 0 -8 3 -2 2 5 9 10 14 10 6 0
7 -5 3 -12 -5 -8 0 -9 16 -5 16 4 20 3 12 -5 -12 -12 -66 -12 -107 1 l-30 9
39 1 c50 1 43 9 -15 16 -75 9 -443 5 -477 -4 -17 -5 -32 -8 -32 -5 0 3 -9 0
-21 -6 -15 -9 -24 -8 -37 2 -13 11 -15 11 -10 -3 3 -9 1 -16 -5 -17 -58 -6
-80 -13 -136 -44 -81 -45 -169 -106 -195 -137 -12 -12 -37 -39 -56 -60 -51
-51 -110 -126 -110 -138 0 -5 -27 -65 -61 -132 -53 -106 -64 -136 -80 -234
-10 -62 -19 -129 -19 -149 0 -45 -11 -53 -47 -36 -25 12 -27 17 -24 63 3 57 7
91 15 120 3 11 13 51 23 88 11 39 22 65 27 60 5 -5 6 -2 2 5 -9 14 46 126 100
205 35 50 94 128 104 137 4 3 10 14 14 25 8 22 10 24 -60 -60 -111 -134 -209
-325 -215 -420 -1 -22 -7 -48 -12 -58 -4 -10 -11 -46 -14 -80 -5 -63 -23 -105
-23 -55 0 40 -18 43 -34 6 l-15 -33 2 40 c2 35 5 40 25 37 30 -4 28 14 -2 22
-21 5 -24 10 -19 38 6 41 8 49 16 68 3 8 13 42 22 75 29 108 127 275 224 384
11 13 21 29 21 35 -1 6 -10 0 -21 -14 -12 -14 -33 -38 -48 -55 -89 -100 -201
-319 -214 -420 -11 -90 -18 -105 -53 -120 -82 -34 -103 -175 -26 -175 16 0 34
6 41 13 20 18 9 -22 -33 -123 -42 -103 -54 -176 -32 -205 14 -18 17 -19 42 -5
15 8 34 30 43 47 18 36 31 42 31 16 0 -30 96 -218 147 -290 118 -167 313 -321
503 -394 58 -22 128 -51 156 -65 55 -25 130 -45 138 -36 3 2 11 1 18 -5 16
-12 97 -31 163 -38 136 -15 330 3 448 41 26 9 53 17 60 18 7 1 34 12 61 24 59
27 60 27 53 2 -3 -11 -1 -20 4 -20 5 0 10 7 10 15 1 8 2 20 3 27 1 11 21 25
101 68 22 12 55 35 73 52 32 28 35 28 48 11 7 -10 14 -26 14 -35 0 -29 11 -47
26 -41 8 3 14 -1 15 -8 1 -25 8 -55 19 -80 10 -23 10 -22 5 6 -2 17 -7 46 -9
66 -3 21 -18 50 -36 69 -33 36 -38 50 -15 50 8 0 14 4 13 9 -2 5 21 34 50 64
28 30 52 58 52 61 0 3 10 17 23 32 12 14 40 55 62 92 24 37 54 73 72 83 30 17
32 17 64 -7 30 -22 59 -31 59 -19 0 7 -33 44 -76 86 l-32 30 23 74 c26 84 35
136 40 245 3 42 9 76 15 78 23 8 90 87 90 107 0 18 -29 -2 -49 -34 -51 -84
-130 -80 -147 7 -9 47 -20 47 -44 4 -12 -21 -30 -43 -39 -49 -17 -11 -18 -7
-16 42 2 29 6 58 10 64 8 15 48 14 63 -1 9 -9 12 -8 12 5 0 24 -42 42 -67 29
-17 -10 -22 -2 -52 95 -18 58 -35 125 -36 149 -2 24 -9 54 -17 67 -8 12 -23
40 -33 61 -10 21 -29 50 -42 64 -13 14 -23 29 -23 34 0 5 -17 27 -37 48 -58
57 -91 99 -85 104 3 3 -4 9 -14 12 -10 4 -34 23 -51 43 -18 20 -33 31 -33 24
0 -7 -7 -10 -15 -7 -8 4 -12 10 -9 15 3 5 -1 9 -8 9 -7 0 -29 14 -48 31 -32
28 -33 30 -10 23 54 -15 53 -13 -5 16 -33 16 -66 28 -72 25 -7 -2 -13 0 -13 5
0 6 -5 10 -11 10 -6 0 -40 14 -76 30 -68 32 -88 37 -62 17z m-1469 -952 c-3
-46 -8 -59 -29 -72 -22 -14 -26 -15 -40 -1 -21 21 -8 74 25 105 39 36 47 30
44 -32z m38 -43 c0 -5 -7 -17 -15 -28 -14 -18 -14 -17 -4 9 12 27 19 34 19 19z
m53 -77 c12 -157 35 -254 87 -361 51 -104 147 -242 216 -310 57 -57 222 -194
233 -194 4 0 14 -7 21 -15 10 -12 6 -11 -21 2 -19 9 -36 19 -39 22 -3 3 -27
17 -53 31 -65 34 -203 146 -251 204 -22 27 -54 64 -73 84 -18 21 -33 40 -33
44 0 4 -13 29 -29 55 -25 42 -62 131 -99 241 -6 18 -9 43 -6 55 3 12 7 51 10
87 7 89 11 117 19 130 11 17 12 11 18 -75z m2207 44 c0 -12 63 -37 78 -32 10
4 13 1 9 -13 -6 -21 -14 -61 -22 -114 -8 -52 -33 -133 -56 -187 l-21 -48 -10
28 c-5 15 -14 27 -19 27 -6 0 -7 -6 -3 -12 5 -9 4 -10 -4 -3 -8 8 -5 31 13 88
13 42 26 105 30 139 4 35 9 72 11 82 2 11 0 15 -5 10 -4 -5 -14 -43 -20 -84
-7 -41 -21 -105 -32 -142 -20 -67 -20 -67 -39 -48 -11 11 -24 20 -29 20 -4 0
-2 23 5 51 15 56 24 113 29 174 5 52 -11 25 -19 -34 -8 -59 -17 -66 -12 -10 6
67 9 72 42 96 17 12 35 30 38 40 7 17 8 17 22 -1 8 -11 14 -23 14 -27z m-2124
18 c1 -1 4 -47 7 -102 3 -55 7 -111 10 -125 3 -14 8 -47 12 -75 11 -82 50
-183 113 -290 l23 -40 -31 35 c-26 29 -102 152 -106 170 -1 6 -11 32 -32 80
-8 19 -17 44 -19 55 -2 11 -8 38 -14 60 -18 65 -21 85 -34 194 l-6 53 38 -7
c21 -4 39 -8 39 -8z m-140 -81 c-1 -19 -4 -37 -7 -40 -7 -7 -11 53 -4 65 11
16 13 10 11 -25z m-28 -38 c1 -7 4 -33 8 -56 8 -55 -11 -124 -43 -158 -13 -14
-26 -24 -28 -22 -19 19 -1 118 39 211 17 40 22 44 24 25z m263 -208 c11 -8 19
-71 8 -64 -5 3 -7 10 -4 15 4 5 1 9 -6 9 -7 0 -10 3 -6 6 3 4 0 19 -8 35 -8
15 -15 34 -14 41 0 7 6 2 12 -12 6 -14 15 -27 18 -30z m2054 -67 c-9 -15 -13
-19 -10 -8 4 11 10 29 13 40 3 11 7 14 9 8 3 -7 -3 -24 -12 -40z m-1943 -215
c65 -87 158 -182 220 -224 24 -16 55 -38 70 -50 15 -12 67 -41 117 -65 50 -23
89 -44 87 -46 -6 -6 -130 45 -191 78 -136 73 -202 131 -308 270 -19 26 -80
128 -86 144 -2 6 -7 20 -12 33 -16 43 -9 38 19 -13 15 -28 53 -85 84 -127z
m49 -10 c17 -31 3 -20 -37 30 -36 45 -36 46 -5 17 18 -16 37 -38 42 -47z
m1809 37 c0 -14 -96 -141 -152 -200 -26 -28 -38 -35 -38 -23 0 9 12 30 28 46
15 16 53 63 86 105 50 66 76 91 76 72z m-1698 -148 c107 -86 199 -138 316
-178 48 -17 114 -39 147 -51 52 -18 84 -21 230 -22 94 0 186 3 205 7 36 8 167
46 185 54 6 2 1 -3 -10 -12 -11 -9 -31 -19 -45 -22 -14 -3 -41 -13 -60 -21
-32 -13 -33 -15 -15 -24 17 -7 17 -8 -5 -4 -13 3 -67 -4 -120 -16 -99 -21
-135 -23 -223 -13 -185 21 -364 94 -531 218 -64 47 -136 112 -136 123 0 9 12
2 62 -39z m1318 -80 c0 -18 -20 -34 -94 -80 -52 -31 -99 -57 -104 -57 -6 0
-34 -11 -64 -25 -29 -14 -45 -25 -35 -25 28 0 113 38 214 97 50 29 94 53 98
53 3 0 20 13 36 30 25 25 33 28 49 18 16 -11 13 -15 -34 -47 -68 -46 -93 -61
-106 -61 -6 0 -20 -8 -30 -18 -11 -10 -44 -26 -75 -36 -48 -15 -82 -36 -57
-36 15 0 154 59 169 72 11 9 16 9 22 0 5 -9 11 -6 18 10 6 13 23 30 39 38 16
8 40 23 53 33 22 16 26 16 34 2 5 -10 4 -22 -4 -32 -15 -18 -111 -82 -154
-103 -16 -8 -32 -18 -35 -21 -8 -10 -48 -29 -60 -29 -7 0 -9 9 -5 23 5 18 3
17 -13 -7 -23 -33 -87 -66 -141 -72 -20 -3 -61 -11 -91 -19 -114 -28 -370 -17
-492 21 -26 8 -56 16 -67 17 -11 0 -18 4 -16 8 3 3 24 3 47 -2 40 -7 397 -4
463 5 108 14 222 42 212 52 -2 2 -25 0 -50 -5 -32 -6 -44 -5 -40 2 4 6 0 8
-10 4 -10 -3 -17 -3 -17 2 0 5 19 16 41 25 57 23 217 118 259 155 19 17 36 30
38 31 1 0 2 -10 2 -23z m-1050 -190 c13 -5 13 -6 -1 -6 -8 -1 -24 6 -35 15
-19 15 -19 15 1 6 11 -5 27 -12 35 -15z m114 -28 c12 -10 -64 1 -84 12 -9 6 3
6 30 3 25 -4 49 -10 54 -15z m46 11 c8 -5 11 -10 5 -10 -5 0 -17 5 -25 10 -8
5 -10 10 -5 10 6 0 17 -5 25 -10z m45 -10 c3 -6 -1 -7 -9 -4 -18 7 -21 14 -7
14 6 0 13 -4 16 -10z"/>
<path d="M1820 2487 c0 -3 12 -12 26 -22 15 -9 23 -12 20 -6 -7 11 -46 35 -46
28z"/>
<path d="M1934 2471 c7 -11 46 -35 46 -28 0 3 -12 12 -26 22 -15 9 -23 12 -20
6z"/>
<path d="M1907 2409 c7 -7 15 -10 18 -7 3 3 -2 9 -12 12 -14 6 -15 5 -6 -5z"/>
<path d="M1949 2386 c8 -9 19 -16 27 -16 7 0 19 -7 28 -15 8 -8 17 -11 20 -7
3 5 -16 19 -41 31 -34 16 -43 18 -34 7z"/>
<path d="M2090 2366 c0 -2 7 -9 15 -16 13 -11 14 -10 9 4 -5 14 -24 23 -24 12z"/>
<path d="M2060 2306 c0 -3 14 -12 30 -21 17 -9 30 -13 30 -11 0 3 -13 12 -30
21 -16 9 -30 13 -30 11z"/>
<path d="M2240 731 c0 -5 5 -13 10 -16 6 -3 10 -2 10 4 0 5 -4 13 -10 16 -5 3
-10 2 -10 -4z"/>
<path d="M2311 535 c0 -11 4 -27 9 -35 9 -13 10 -13 9 0 0 8 -4 24 -9 35 l-9
20 0 -20z"/>
<path d="M2052 476 c-6 -22 -9 -42 -7 -44 7 -8 26 50 22 67 -2 9 -9 -2 -15
-23z"/>
<path d="M1932 460 c-6 -16 -7 -32 -3 -34 4 -3 13 10 19 29 12 43 -2 47 -16 5z"/>
<path d="M2221 410 c0 -8 6 -28 14 -45 l14 -30 -6 30 c-7 38 -22 68 -22 45z"/>
<path d="M1825 399 c-4 -6 -5 -12 -2 -15 2 -3 7 2 10 11 7 17 1 20 -8 4z"/>
<path d="M1855 360 c-3 -5 -1 -10 4 -10 6 0 11 5 11 10 0 6 -2 10 -4 10 -3 0
-8 -4 -11 -10z"/>
<path d="M2214 288 c3 -13 15 -70 27 -128 22 -110 40 -161 34 -100 -2 19 -6
46 -9 60 -3 14 -8 47 -11 74 -6 49 -29 116 -40 116 -3 0 -3 -10 -1 -22z"/>
<path d="M1866 273 c-4 -9 -3 -20 2 -25 6 -6 12 -1 15 11 6 25 -8 38 -17 14z"/>
<path d="M1971 260 c-2 -8 -4 -23 -6 -34 -2 -13 0 -15 7 -8 5 5 8 20 5 33 -2
13 -5 17 -6 9z"/>
</g>
</svg>
